<svg width="188" height="101" viewBox="0 0 188 101" fill="none" xmlns="http://www.w3.org/2000/svg">
<g clip-path="url(#clip0_313_1095)">
<path fill-rule="evenodd" clip-rule="evenodd" d="M86.6554 2.78621V13.8614H75.4262C73.8725 13.8614 72.6013 15.1152 72.6013 16.6476V27.7228H61.3015C59.7478 27.7228 58.4766 28.9765 58.4766 30.509V41.5841V48.48V62.3414H72.5307V48.48V41.5841V27.7228H83.7598C85.3135 27.7228 86.5847 26.469 86.5847 24.9366V13.8614H100.639V24.9366C100.639 26.469 101.91 27.7228 103.464 27.7228H114.693V41.5841V48.48H100.639V37.4048C100.639 35.8724 99.3676 34.6186 97.8139 34.6186H89.4097C87.856 34.6186 86.5847 35.8724 86.5847 37.4048V48.48V62.3414H100.639H114.693H128.747V48.48V41.5841V30.509C128.747 28.9765 127.476 27.7228 125.922 27.7228H114.693V16.6476C114.693 15.1152 113.422 13.8614 111.868 13.8614H100.639V2.78621C100.639 1.25379 99.3676 0 97.8139 0H89.4097C87.856 0 86.6554 1.25379 86.6554 2.78621Z" fill="#030304" style="fill:#030304;fill:color(display-p3 0.0118 0.0118 0.0157);fill-opacity:1;"/>
<path d="M11.8648 83.9345C11.8648 82.3324 11.0879 81.5662 9.46356 81.5662H4.87303V92.711H9.46356C11.0879 92.711 11.8648 91.9448 11.8648 90.3427V83.9345ZM10.5229 77.8048C12.571 77.8048 14.1247 78.3621 15.1134 79.4069C16.1728 80.4517 16.7378 81.9841 16.7378 83.9345V90.3427C16.7378 92.3627 16.1728 93.8952 15.1134 94.94C14.0541 95.9848 12.5004 96.4724 10.5229 96.4724H0V77.8745H10.5229V77.8048Z" fill="#030304" style="fill:#030304;fill:color(display-p3 0.0118 0.0118 0.0157);fill-opacity:1;"/>
<path d="M29.0262 86.7207C29.0262 86.0241 28.6731 85.6758 27.9669 85.6758H24.7182C24.012 85.6758 23.6588 86.0241 23.6588 86.7207V92.0145C23.6588 92.711 24.012 93.0593 24.7182 93.0593H27.9669C28.6731 93.0593 29.0262 92.711 29.0262 92.0145V86.7207ZM33.6874 92.4324C33.6874 93.7558 33.3343 94.8007 32.5574 95.5669C31.7806 96.3331 30.7212 96.6813 29.3794 96.6813H23.1645C21.8226 96.6813 20.7633 96.3331 19.9864 95.5669C19.2096 94.8007 18.8564 93.7558 18.8564 92.4324V86.3724C18.8564 85.0489 19.2096 84.0041 19.9864 83.2379C20.7633 82.4717 21.8226 82.1234 23.1645 82.1234H29.3794C30.7212 82.1234 31.7806 82.4717 32.5574 83.2379C33.3343 84.0041 33.6874 85.0489 33.6874 86.3724V92.4324Z" fill="#030304" style="fill:#030304;fill:color(display-p3 0.0118 0.0118 0.0157);fill-opacity:1;"/>
<path d="M43.4337 96.4724C42.2331 96.6814 41.1031 96.751 39.9732 96.751C38.9138 96.751 37.9957 96.4027 37.2188 95.6365C36.5126 94.94 36.0889 93.9648 36.0889 92.711V77.8048H40.8206V92.0145C40.8206 92.2931 40.8913 92.5021 41.1031 92.711C41.315 92.92 41.5269 92.9896 41.8094 92.9896H43.4337V96.4724Z" fill="#030304" style="fill:#030304;fill:color(display-p3 0.0118 0.0118 0.0157);fill-opacity:1;"/>
<path d="M50.002 82.6111C51.7676 82.2628 53.2507 82.0538 54.5925 82.0538H55.5106C56.7112 82.0538 57.7 82.4021 58.4768 83.1683C59.183 83.8649 59.6068 84.84 59.6068 86.0938V92.2235C59.6068 93.5469 59.2537 94.5917 58.4768 95.358C57.7 96.1242 56.6406 96.4724 55.2987 96.4724H45.3408V77.8745H50.0726V82.6111H50.002ZM54.875 86.5814C54.875 86.3028 54.8044 86.0938 54.5925 85.8849C54.3806 85.6759 54.1688 85.6062 53.8863 85.6062H53.18C52.4032 85.6062 51.7676 85.6759 51.2026 85.7455C50.6376 85.8152 50.2138 85.8849 49.9314 85.8849V92.7807H53.6744C54.3806 92.7807 54.7338 92.4324 54.7338 91.7359V86.5814H54.875Z" fill="#030304" style="fill:#030304;fill:color(display-p3 0.0118 0.0118 0.0157);fill-opacity:1;"/>
<path d="M71.8951 86.7207C71.8951 86.0241 71.542 85.6758 70.8357 85.6758H67.587C66.8808 85.6758 66.5277 86.0241 66.5277 86.7207V92.0145C66.5277 92.711 66.8808 93.0593 67.587 93.0593H70.8357C71.542 93.0593 71.8951 92.711 71.8951 92.0145V86.7207ZM76.6269 92.4324C76.6269 93.7558 76.2737 94.8007 75.4969 95.5669C74.72 96.3331 73.6607 96.6813 72.3188 96.6813H66.1039C64.7621 96.6813 63.7027 96.3331 62.9259 95.5669C62.149 94.8007 61.7959 93.7558 61.7959 92.4324V86.3724C61.7959 85.0489 62.149 84.0041 62.9259 83.2379C63.7027 82.4717 64.7621 82.1234 66.1039 82.1234H72.3188C73.6607 82.1234 74.72 82.4717 75.4969 83.2379C76.2737 84.0041 76.6269 85.0489 76.6269 86.3724V92.4324Z" fill="#030304" style="fill:#030304;fill:color(display-p3 0.0118 0.0118 0.0157);fill-opacity:1;"/>
<path d="M88.9149 86.7207C88.9149 86.0241 88.5618 85.6758 87.8556 85.6758H84.6069C83.9006 85.6758 83.5475 86.0241 83.5475 86.7207V92.0145C83.5475 92.711 83.9006 93.0593 84.6069 93.0593H87.8556C88.5618 93.0593 88.9149 92.711 88.9149 92.0145V86.7207ZM93.5761 92.4324C93.5761 93.7558 93.2229 94.8007 92.4461 95.5669C91.6692 96.3331 90.6099 96.6813 89.268 96.6813H83.0532C81.7113 96.6813 80.652 96.3331 79.8751 95.5669C79.0982 94.8007 78.7451 93.7558 78.7451 92.4324V86.3724C78.7451 85.0489 79.0982 84.0041 79.8751 83.2379C80.652 82.4717 81.7113 82.1234 83.0532 82.1234H89.268C90.6099 82.1234 91.6692 82.4717 92.4461 83.2379C93.2229 84.0041 93.5761 85.0489 93.5761 86.3724V92.4324Z" fill="#030304" style="fill:#030304;fill:color(display-p3 0.0118 0.0118 0.0157);fill-opacity:1;"/>
<path d="M104.24 86.2331C103.11 86.2331 101.91 86.5117 100.709 86.9993V96.4724H96.0479V82.402H100.215L100.497 84.1434C102.051 82.82 103.675 82.1234 105.37 82.1234H106.571V86.2331H104.24Z" fill="#030304" style="fill:#030304;fill:color(display-p3 0.0118 0.0118 0.0157);fill-opacity:1;"/>
<path d="M124.863 96.0545C120.625 96.4724 116.812 96.7511 113.281 96.7511C111.515 96.7511 110.244 96.3331 109.396 95.4973C108.549 94.6614 108.125 93.4076 108.125 91.6662V83.1683C108.125 81.2876 108.549 79.9642 109.396 79.1283C110.244 78.2924 111.656 77.8745 113.492 77.8745H123.238V81.5662H114.622C113.563 81.5662 112.998 82.1235 112.998 83.1683V91.6662C112.998 92.0842 113.139 92.4324 113.351 92.6414C113.634 92.8504 113.916 92.9897 114.34 92.9897C116.388 92.9897 118.295 92.92 119.99 92.8504V89.0193H116.459V85.8152H124.792V96.0545H124.863Z" fill="#030304" style="fill:#030304;fill:color(display-p3 0.0118 0.0118 0.0157);fill-opacity:1;"/>
<path d="M135.527 86.2331C134.397 86.2331 133.196 86.5117 131.995 86.9993V96.4724H127.264V82.402H131.43L131.713 84.1434C133.267 82.82 134.891 82.1234 136.586 82.1234H137.787V86.2331H135.527Z" fill="#030304" style="fill:#030304;fill:color(display-p3 0.0118 0.0118 0.0157);fill-opacity:1;"/>
<path d="M149.087 86.7207C149.087 86.0241 148.734 85.6758 148.027 85.6758H144.779C144.073 85.6758 143.719 86.0241 143.719 86.7207V92.0145C143.719 92.711 144.073 93.0593 144.779 93.0593H148.027C148.734 93.0593 149.087 92.711 149.087 92.0145V86.7207ZM153.748 92.4324C153.748 93.7558 153.395 94.8007 152.618 95.5669C151.841 96.3331 150.782 96.6813 149.44 96.6813H143.225C141.883 96.6813 140.824 96.3331 140.047 95.5669C139.27 94.8007 138.917 93.7558 138.917 92.4324V86.3724C138.917 85.0489 139.27 84.0041 140.047 83.2379C140.824 82.4717 141.883 82.1234 143.225 82.1234H149.44C150.782 82.1234 151.841 82.4717 152.618 83.2379C153.395 84.0041 153.748 85.0489 153.748 86.3724V92.4324Z" fill="#030304" style="fill:#030304;fill:color(display-p3 0.0118 0.0118 0.0157);fill-opacity:1;"/>
<path d="M162.787 92.8503C163.705 92.8503 164.835 92.6413 166.036 92.293V82.3323H170.768V96.4027H166.601L166.318 95.0792C165.471 95.6365 164.623 96.0544 163.705 96.333C162.858 96.6117 162.081 96.6813 161.445 96.6813H160.245C159.044 96.6813 158.055 96.333 157.278 95.5668C156.572 94.8703 156.148 93.8951 156.148 92.6413V82.2627H160.88V91.9448C160.88 92.2234 160.951 92.4324 161.163 92.6413C161.375 92.8503 161.586 92.9199 161.869 92.9199H162.787V92.8503Z" fill="#030304" style="fill:#030304;fill:color(display-p3 0.0118 0.0118 0.0157);fill-opacity:1;"/>
<path d="M178.183 96.4724V101H173.451V82.402H177.618L177.9 83.7255C178.748 83.1682 179.595 82.7503 180.514 82.5413C181.432 82.2627 182.138 82.1234 182.773 82.1234H183.974C185.175 82.1234 186.163 82.4717 186.94 83.2379C187.647 83.9344 188.07 84.9096 188.07 86.1634V92.2931C188.07 93.6165 187.717 94.6613 186.94 95.4276C186.163 96.1938 185.104 96.542 183.762 96.542H178.183V96.4724ZM181.432 85.9544C180.514 85.9544 179.384 86.1634 178.183 86.5117V92.92H182.208C182.915 92.92 183.268 92.5717 183.268 91.8751V86.9296C183.268 86.651 183.197 86.442 182.985 86.2331C182.773 86.0241 182.562 85.9544 182.279 85.9544H181.432Z" fill="#030304" style="fill:#030304;fill:color(display-p3 0.0118 0.0118 0.0157);fill-opacity:1;"/>
</g>
<defs>
<clipPath id="clip0_313_1095">
<rect width="188" height="101" fill="white" style="fill:white;fill-opacity:1;"/>
</clipPath>
</defs>
</svg>
